<?xml version="1.0" standalone="no"?>
<!DOCTYPE svg PUBLIC "-//W3C//DTD SVG 20010904//EN"
 "http://www.w3.org/TR/2001/REC-SVG-20010904/DTD/svg10.dtd">
<svg version="1.0" xmlns="http://www.w3.org/2000/svg"
 width="512.000000pt" height="512.000000pt" viewBox="0 0 512.000000 512.000000"
 preserveAspectRatio="xMidYMid meet">

<g transform="translate(0.000000,512.000000) scale(0.100000,-0.100000)"
fill="#000000" stroke="none">
<path d="M2673 5087 c-17 -18 -40 -52 -51 -77 -34 -76 -103 -232 -129 -290
-14 -30 -50 -111 -80 -180 -30 -69 -69 -154 -85 -190 -17 -36 -43 -94 -58
-130 -39 -90 -102 -235 -130 -295 -12 -27 -31 -70 -43 -95 -11 -25 -32 -73
-48 -107 l-28 -63 -580 0 c-594 0 -628 -2 -766 -41 -179 -51 -373 -191 -490
-355 -74 -104 -165 -317 -165 -388 0 -12 -5 -27 -11 -33 -12 -12 -6 -280 9
-393 10 -75 45 -227 60 -265 68 -166 187 -334 306 -433 89 -75 208 -147 291
-176 28 -10 59 -22 70 -26 44 -18 171 -40 232 -40 48 0 65 -4 69 -15 6 -15
-12 -66 -67 -181 -16 -34 -29 -65 -29 -68 0 -4 -19 -48 -43 -99 -24 -50 -49
-108 -57 -127 -7 -19 -17 -40 -21 -45 -4 -6 -16 -33 -27 -60 -11 -28 -33 -79
-50 -115 -66 -144 -129 -287 -183 -414 -16 -38 -29 -81 -29 -96 0 -29 93 -185
138 -233 40 -42 81 -49 248 -45 175 4 189 9 227 90 43 92 77 168 77 173 0 5
31 75 86 193 19 40 34 76 34 81 0 4 11 31 25 59 14 29 25 54 25 57 0 2 14 34
30 70 17 36 30 67 30 70 0 2 18 43 40 90 22 47 40 88 40 90 0 3 11 29 25 59
14 30 25 57 25 60 0 3 13 33 29 68 15 35 42 95 59 133 17 39 42 96 56 127 l26
58 314 0 c174 0 317 -4 320 -9 6 -9 -12 -53 -65 -167 -16 -34 -29 -65 -29 -68
0 -4 -15 -37 -33 -74 -18 -37 -44 -94 -57 -127 -13 -33 -35 -79 -47 -103 -13
-24 -23 -47 -23 -52 0 -5 -15 -42 -34 -82 -62 -134 -88 -193 -116 -258 -15
-36 -42 -96 -60 -135 -53 -113 -52 -134 15 -240 101 -161 108 -165 302 -165
76 0 153 4 171 9 37 11 66 40 88 89 8 18 28 62 44 98 17 35 30 67 30 69 0 5
31 75 86 193 19 40 34 76 34 81 0 4 11 31 25 59 14 29 25 54 25 57 0 2 14 34
30 70 17 36 30 67 30 70 0 2 16 38 35 79 19 42 35 78 35 81 0 3 11 28 25 57
14 28 25 55 25 59 0 5 15 41 34 81 18 40 47 105 64 143 17 39 42 96 56 128
l26 57 217 0 c120 0 371 5 558 10 403 13 473 24 633 103 310 154 506 407 583
757 16 71 23 434 10 480 -5 19 -17 64 -26 100 -19 76 -21 81 -69 185 -111 235
-333 425 -576 494 -19 5 -53 15 -75 21 -22 6 -100 14 -172 17 -80 4 -133 10
-133 16 0 10 20 57 86 205 13 29 24 55 24 58 0 3 13 33 29 67 16 34 59 132 96
217 37 85 76 175 87 200 11 25 23 54 28 65 4 11 20 46 34 78 14 32 26 60 26
62 0 2 14 35 31 72 61 131 62 139 36 192 -37 73 -112 184 -141 209 -25 21 -35
22 -182 22 l-155 0 -34 -32 c-24 -23 -54 -79 -100 -183 -36 -82 -74 -168 -84
-190 -10 -22 -44 -98 -76 -170 -31 -71 -71 -159 -87 -195 -17 -36 -43 -94 -58
-130 -37 -87 -102 -234 -128 -292 -12 -27 -32 -69 -43 -95 -12 -27 -34 -76
-50 -110 l-28 -63 -331 0 c-245 0 -330 3 -330 12 0 6 14 43 31 82 18 39 37 85
44 101 19 44 54 124 75 170 11 22 49 110 85 195 37 85 76 175 87 200 11 25 23
54 28 65 5 11 17 40 28 65 55 123 96 219 108 253 15 43 11 59 -43 145 -18 29
-33 56 -33 61 0 4 -21 31 -48 60 l-48 51 -159 -1 -160 0 -32 -32z m1687 -1569
c96 -29 114 -35 165 -58 156 -72 297 -212 381 -377 69 -137 94 -243 94 -401 0
-255 -93 -472 -274 -639 -42 -38 -95 -80 -118 -92 -134 -74 -162 -85 -267
-107 -55 -12 -362 -14 -1789 -14 -1686 0 -1724 0 -1796 20 -171 46 -254 92
-380 210 -92 86 -188 243 -221 360 -30 107 -37 171 -32 297 7 186 45 307 144
456 51 77 171 202 203 212 11 4 20 11 20 16 0 5 5 9 10 9 6 0 27 10 48 23 79
49 193 85 317 101 17 2 797 2 1735 2 1539 -2 1710 -4 1760 -18z"/>
<path d="M805 3335 c-98 -34 -144 -60 -217 -120 -146 -121 -238 -325 -238
-523 2 -316 207 -582 505 -653 51 -12 320 -14 1730 -14 l1670 0 70 23 c108 36
193 88 271 166 73 74 140 181 164 266 7 25 16 58 21 74 14 46 11 239 -5 298
-27 97 -34 116 -66 175 -75 137 -204 247 -355 303 -77 29 -135 30 -1791 29
l-1689 0 -70 -24z m1019 -117 c-4 -13 -24 -60 -45 -106 -22 -46 -39 -85 -39
-88 0 -3 -20 -48 -45 -101 -25 -52 -45 -97 -45 -99 0 -2 -16 -38 -35 -80 -19
-41 -35 -78 -35 -81 0 -2 -16 -39 -36 -81 -19 -42 -39 -86 -44 -97 -4 -11 -24
-55 -44 -97 -20 -42 -36 -80 -36 -83 0 -3 -16 -40 -36 -81 l-37 -75 -236 4
c-131 2 -253 8 -274 14 -137 40 -292 196 -342 343 -23 70 -32 253 -15 318 40
160 170 314 315 375 79 33 117 35 573 36 l463 1 -7 -22z m1350 0 c-4 -13 -24
-60 -45 -106 -22 -46 -39 -85 -39 -88 0 -2 -20 -47 -45 -100 -25 -52 -45 -97
-45 -99 0 -3 -16 -39 -35 -81 -19 -41 -35 -78 -35 -81 0 -2 -16 -39 -36 -81
-19 -42 -39 -86 -44 -97 -4 -11 -19 -45 -33 -75 -14 -30 -37 -80 -50 -110 -13
-30 -34 -76 -47 -102 l-22 -48 -324 0 c-178 0 -324 4 -324 8 0 5 11 32 25 60
14 29 25 54 25 57 0 3 16 39 35 81 19 41 35 77 35 79 0 3 14 34 30 70 17 36
30 67 30 70 0 2 13 32 29 67 16 35 41 92 56 128 15 36 43 101 62 145 19 44 51
116 70 160 20 44 44 99 55 123 l18 42 331 0 330 0 -7 -22z m1112 7 c217 -56
394 -293 394 -526 0 -147 -61 -291 -170 -399 -81 -81 -131 -111 -236 -139 -49
-13 -874 -16 -874 -3 0 5 11 32 25 60 14 29 25 54 25 57 0 4 34 82 106 243 13
29 24 54 24 57 0 2 13 32 29 67 16 35 47 106 69 158 45 108 138 322 171 393
l21 47 180 0 c126 0 196 -4 236 -15z"/>
</g>
</svg>
